<svg xmlns="http://www.w3.org/2000/svg" viewBox="0 0 584 418.93"><defs><style>.cls-1{fill:#021124;}.cls-2,.cls-3{fill:none;stroke:#fff;stroke-miterlimit:10;}.cls-2{stroke-width:5px;}.cls-3{stroke-linecap:round;stroke-width:3px;}</style></defs><title>Logo</title><g id="Camada_2" data-name="Camada 2"><g id="Camada_2-2" data-name="Camada 2"><rect class="cls-1" width="584" height="418.93"/><line class="cls-2" x1="264.98" y1="103.44" x2="318.96" y2="103.44"/><path class="cls-2" d="M276.54,89.54h31.73a9.91,9.91,0,0,1,8.52,4.56A16.85,16.85,0,0,1,319,103v13.5H265V103S265,89.54,276.54,89.54Z"/><path class="cls-2" d="M266.5,116.51s-9-1-9.24,6.5c0,0-.76,7,7.71,7h55.92s.18,0,.49,0c6.83-.62,8.33-10.33,1.91-12.74a12.23,12.23,0,0,0-4.33-.73"/><path class="cls-2" d="M265,130v5.78c0,7.73-2.58,16.32-4.3,21.17a38.67,38.67,0,0,1-3.07,6.61L245.69,184a68.77,68.77,0,0,0-6,12.37,58.39,58.39,0,0,0-3.61,20.19h0c0,29.58,22.12,55,51.41,57.81l.71,0a56,56,0,0,0,8,0l.56,0c29.61-2.5,51.93-28.14,51.93-57.85h0a58.39,58.39,0,0,0-3.61-20.19A68.77,68.77,0,0,0,339,184l-11.91-20.42a38.67,38.67,0,0,1-3.07-6.61c-1.71-4.85-4.3-13.44-4.3-21.17V130"/><path class="cls-2" d="M284.26,137.74"/><path class="cls-3" d="M292.29,192.08c-9.61,0-9.29,8.33-9.29,8.33v1c0,3.53,2.48,3.53,2.48,3.53h.5s2.48,0,2.48-3.53v-1.1a9.46,9.46,0,0,0-1.19-4.7c-1.13-2-2.77-3.49-7.14-3.49-9,0-10.18,6.74-10.26,9a.62.62,0,0,0,.62.64h0a.79.79,0,0,0,.77-.65L273.7,187S284,142.72,284,136.31"/><path class="cls-3" d="M292.1,192.08c9.61,0,9.29,8.33,9.29,8.33v1c0,3.53-2.48,3.53-2.48,3.53h-.5s-2.48,0-2.48-3.53v-1.1a9.46,9.46,0,0,1,1.19-4.7c1.13-2,2.78-3.24,7.14-3.49,9.24-.54,10.18,6.74,10.26,9a.62.62,0,0,1-.62.64h0a.79.79,0,0,1-.77-.65L310.69,187s-9.42-44.23-9.42-50.64"/><line class="cls-3" x1="366.01" y1="217.08" x2="376.58" y2="217.08"/><line class="cls-3" x1="391.97" y1="217.35" x2="401.26" y2="217.35"/><line class="cls-3" x1="356.39" y1="254.26" x2="365.04" y2="259.67"/><line class="cls-3" x1="377.54" y1="266.44" x2="386.2" y2="272.53"/><line class="cls-3" x1="328.83" y1="281.82" x2="334.24" y2="290.47"/><line class="cls-3" x1="342.29" y1="304.25" x2="346.45" y2="311.03"/><line class="cls-3" x1="292.29" y1="291.43" x2="292.29" y2="302.65"/><line class="cls-3" x1="292.29" y1="317.07" x2="292.29" y2="327.01"/><line class="cls-3" x1="255.43" y1="282.02" x2="249.34" y2="291.43"/><line class="cls-3" x1="242.54" y1="303.93" x2="237.81" y2="311.31"/><line class="cls-3" x1="227.23" y1="254.68" x2="219.22" y2="260.03"/><line class="cls-3" x1="205.43" y1="267.4" x2="198.7" y2="272.2"/><line class="cls-3" x1="218.58" y1="217.08" x2="206.4" y2="217.08"/><line class="cls-3" x1="193.58" y1="217.08" x2="183" y2="217.08"/></g></g></svg>