<svg width="474" height="161" viewBox="0 0 474 161" fill="none" xmlns="http://www.w3.org/2000/svg">
<path d="M24.896 102.512C20.5867 102.512 16.832 101.595 13.632 99.76C10.432 97.8827 7.97867 95.216 6.272 91.76C4.56533 88.2613 3.712 84.144 3.712 79.408C3.712 74.7147 4.56533 70.64 6.272 67.184C7.97867 63.6853 10.432 61.0187 13.632 59.184C16.832 57.3067 20.5867 56.368 24.896 56.368C27.712 56.368 30.3787 56.816 32.896 57.712C35.4133 58.5653 37.6107 59.824 39.488 61.488C40.2987 62.128 40.704 62.9813 40.704 64.048C40.704 64.816 40.4907 65.4773 40.064 66.032C39.6373 66.544 39.1253 66.8 38.528 66.8C37.8027 66.8 37.0987 66.5227 36.416 65.968C34.368 64.432 32.4907 63.3653 30.784 62.768C29.12 62.128 27.2213 61.808 25.088 61.808C20.3947 61.808 16.7893 63.3227 14.272 66.352C11.7547 69.3813 10.496 73.7333 10.496 79.408C10.496 85.1253 11.7547 89.4987 14.272 92.528C16.7893 95.5573 20.3947 97.072 25.088 97.072C27.136 97.072 28.992 96.752 30.656 96.112C32.3627 95.472 34.2827 94.4053 36.416 92.912C37.2693 92.3573 37.9733 92.08 38.528 92.08C39.1253 92.08 39.6373 92.3573 40.064 92.912C40.4907 93.424 40.704 94.064 40.704 94.832C40.704 95.8987 40.2987 96.752 39.488 97.392C37.6107 99.056 35.4133 100.336 32.896 101.232C30.3787 102.085 27.712 102.512 24.896 102.512ZM60.7355 102.448C57.6635 102.448 54.9542 101.787 52.6075 100.464C50.3035 99.1413 48.5115 97.264 47.2315 94.832C45.9942 92.3573 45.3755 89.4987 45.3755 86.256C45.3755 82.9707 45.9942 80.112 47.2315 77.68C48.5115 75.2053 50.3035 73.3067 52.6075 71.984C54.9542 70.6613 57.6635 70 60.7355 70C63.8075 70 66.4955 70.6613 68.7995 71.984C71.1462 73.3067 72.9382 75.2053 74.1755 77.68C75.4555 80.112 76.0955 82.9707 76.0955 86.256C76.0955 89.4987 75.4555 92.3573 74.1755 94.832C72.9382 97.264 71.1462 99.1413 68.7995 100.464C66.4955 101.787 63.8075 102.448 60.7355 102.448ZM60.7355 97.328C63.5942 97.328 65.7702 96.3893 67.2635 94.512C68.7995 92.6347 69.5675 89.8827 69.5675 86.256C69.5675 82.672 68.7995 79.9413 67.2635 78.064C65.7275 76.144 63.5515 75.184 60.7355 75.184C57.9195 75.184 55.7435 76.144 54.2075 78.064C52.6715 79.9413 51.9035 82.672 51.9035 86.256C51.9035 89.8827 52.6502 92.6347 54.1435 94.512C55.6795 96.3893 57.8768 97.328 60.7355 97.328ZM100.125 70C107.591 70 111.325 74.2027 111.325 82.608V99.248C111.325 100.229 111.026 100.997 110.429 101.552C109.874 102.064 109.085 102.32 108.061 102.32C107.079 102.32 106.29 102.043 105.693 101.488C105.138 100.933 104.861 100.187 104.861 99.248V82.928C104.861 80.2827 104.327 78.3413 103.261 77.104C102.237 75.8667 100.615 75.248 98.3965 75.248C95.7938 75.248 93.7032 76.0587 92.1245 77.68C90.5458 79.3013 89.7565 81.4773 89.7565 84.208V99.248C89.7565 100.187 89.4578 100.933 88.8605 101.488C88.3058 102.043 87.5378 102.32 86.5565 102.32C85.5752 102.32 84.7858 102.043 84.1885 101.488C83.5912 100.933 83.2925 100.187 83.2925 99.248V73.2C83.2925 72.304 83.5912 71.5787 84.1885 71.024C84.8285 70.4267 85.6178 70.128 86.5565 70.128C87.4952 70.128 88.2418 70.4053 88.7965 70.96C89.3512 71.5147 89.6285 72.24 89.6285 73.136V75.76C90.6525 73.8827 92.0818 72.4533 93.9165 71.472C95.7512 70.4907 97.8205 70 100.125 70ZM142.376 72.048C142.632 71.408 142.994 70.9387 143.464 70.64C143.976 70.3413 144.509 70.192 145.064 70.192C145.874 70.192 146.578 70.4693 147.176 71.024C147.816 71.5787 148.136 72.24 148.136 73.008C148.136 73.4347 148.05 73.84 147.88 74.224L135.656 100.144C135.357 100.827 134.888 101.36 134.248 101.744C133.65 102.085 133.01 102.256 132.328 102.256C131.645 102.256 130.984 102.085 130.344 101.744C129.746 101.36 129.298 100.827 129 100.144L116.776 74.224C116.605 73.8827 116.52 73.4773 116.52 73.008C116.52 72.24 116.861 71.5787 117.544 71.024C118.226 70.4693 118.994 70.192 119.848 70.192C121.085 70.192 122.002 70.7893 122.6 71.984L132.52 94L142.376 72.048ZM177.428 94.128C178.025 94.128 178.516 94.3627 178.9 94.832C179.284 95.3013 179.476 95.8987 179.476 96.624C179.476 97.8613 178.708 98.9067 177.172 99.76C175.679 100.613 174.036 101.275 172.244 101.744C170.495 102.213 168.809 102.448 167.188 102.448C162.239 102.448 158.335 101.019 155.476 98.16C152.617 95.2587 151.188 91.312 151.188 86.32C151.188 83.12 151.807 80.2827 153.044 77.808C154.324 75.3333 156.095 73.4133 158.356 72.048C160.66 70.6827 163.263 70 166.164 70C170.345 70 173.652 71.344 176.084 74.032C178.516 76.72 179.732 80.3467 179.732 84.912C179.732 86.6187 178.964 87.472 177.428 87.472H157.652C158.079 94.0853 161.257 97.392 167.188 97.392C168.767 97.392 170.132 97.1787 171.284 96.752C172.436 96.3253 173.652 95.7707 174.932 95.088C175.06 95.0027 175.401 94.832 175.956 94.576C176.553 94.2773 177.044 94.128 177.428 94.128ZM166.292 74.736C163.817 74.736 161.833 75.5253 160.34 77.104C158.847 78.6827 157.951 80.9013 157.652 83.76H174.164C174.036 80.8587 173.289 78.64 171.924 77.104C170.601 75.5253 168.724 74.736 166.292 74.736ZM203.239 70.128C205.287 70 206.311 70.8747 206.311 72.752C206.311 73.6907 206.076 74.3947 205.607 74.864C205.138 75.3333 204.327 75.6107 203.175 75.696L201.255 75.888C198.567 76.144 196.562 77.0827 195.239 78.704C193.959 80.3253 193.319 82.288 193.319 84.592V99.248C193.319 100.272 193.02 101.04 192.423 101.552C191.826 102.064 191.058 102.32 190.119 102.32C189.18 102.32 188.391 102.064 187.751 101.552C187.154 101.04 186.855 100.272 186.855 99.248V73.2C186.855 72.2187 187.154 71.472 187.751 70.96C188.391 70.4053 189.18 70.128 190.119 70.128C190.972 70.128 191.676 70.4053 192.231 70.96C192.828 71.472 193.127 72.1973 193.127 73.136V76.208C193.98 74.3307 195.218 72.9013 196.839 71.92C198.46 70.9387 200.295 70.3627 202.343 70.192L203.239 70.128ZM220.86 102.448C216.508 102.448 212.945 101.552 210.172 99.76C209.404 99.2907 208.849 98.8 208.508 98.288C208.209 97.776 208.06 97.2 208.06 96.56C208.06 95.8773 208.252 95.3013 208.636 94.832C209.02 94.3627 209.511 94.128 210.108 94.128C210.663 94.128 211.537 94.4693 212.732 95.152C214.012 95.8347 215.249 96.3893 216.444 96.816C217.681 97.2427 219.217 97.456 221.052 97.456C223.1 97.456 224.7 97.0933 225.852 96.368C227.004 95.6427 227.58 94.6187 227.58 93.296C227.58 92.4427 227.345 91.76 226.876 91.248C226.449 90.736 225.681 90.288 224.572 89.904C223.463 89.4773 221.82 89.0293 219.644 88.56C215.889 87.7493 213.18 86.6613 211.516 85.296C209.895 83.888 209.084 81.9893 209.084 79.6C209.084 77.7653 209.617 76.1227 210.684 74.672C211.751 73.1787 213.223 72.0267 215.1 71.216C216.977 70.4053 219.111 70 221.5 70C223.207 70 224.871 70.2347 226.492 70.704C228.113 71.1307 229.543 71.7707 230.78 72.624C232.188 73.5627 232.892 74.6507 232.892 75.888C232.892 76.5707 232.679 77.1467 232.252 77.616C231.868 78.0853 231.399 78.32 230.844 78.32C230.46 78.32 230.076 78.2347 229.692 78.064C229.308 77.8933 228.796 77.616 228.156 77.232C227.004 76.5493 225.916 76.016 224.892 75.632C223.911 75.248 222.673 75.056 221.18 75.056C219.388 75.056 217.937 75.44 216.828 76.208C215.761 76.976 215.228 78.0213 215.228 79.344C215.228 80.5387 215.719 81.4773 216.7 82.16C217.724 82.8 219.623 83.4187 222.396 84.016C225.255 84.6133 227.495 85.296 229.116 86.064C230.737 86.832 231.889 87.792 232.572 88.944C233.297 90.0533 233.66 91.4827 233.66 93.232C233.66 96.0053 232.487 98.2453 230.14 99.952C227.836 101.616 224.743 102.448 220.86 102.448ZM265.303 94.128C265.9 94.128 266.391 94.3627 266.775 94.832C267.159 95.3013 267.351 95.8987 267.351 96.624C267.351 97.8613 266.583 98.9067 265.047 99.76C263.554 100.613 261.911 101.275 260.119 101.744C258.37 102.213 256.684 102.448 255.063 102.448C250.114 102.448 246.21 101.019 243.351 98.16C240.492 95.2587 239.063 91.312 239.063 86.32C239.063 83.12 239.682 80.2827 240.919 77.808C242.199 75.3333 243.97 73.4133 246.231 72.048C248.535 70.6827 251.138 70 254.039 70C258.22 70 261.527 71.344 263.959 74.032C266.391 76.72 267.607 80.3467 267.607 84.912C267.607 86.6187 266.839 87.472 265.303 87.472H245.527C245.954 94.0853 249.132 97.392 255.063 97.392C256.642 97.392 258.007 97.1787 259.159 96.752C260.311 96.3253 261.527 95.7707 262.807 95.088C262.935 95.0027 263.276 94.832 263.831 94.576C264.428 94.2773 264.919 94.128 265.303 94.128ZM254.167 74.736C251.692 74.736 249.708 75.5253 248.215 77.104C246.722 78.6827 245.826 80.9013 245.527 83.76H262.039C261.911 80.8587 261.164 78.64 259.799 77.104C258.476 75.5253 256.599 74.736 254.167 74.736ZM302.634 81.392C303.317 81.392 303.893 81.6267 304.362 82.096C304.831 82.5227 305.066 83.0773 305.066 83.76C305.066 84.4427 304.831 85.0187 304.362 85.488C303.893 85.9147 303.317 86.128 302.634 86.128H291.818V96.944C291.818 97.6267 291.583 98.2027 291.114 98.672C290.687 99.1413 290.133 99.376 289.45 99.376C288.767 99.376 288.191 99.1413 287.722 98.672C287.295 98.2027 287.082 97.6267 287.082 96.944V86.128H276.266C275.583 86.128 275.007 85.8933 274.538 85.424C274.069 84.9547 273.834 84.4 273.834 83.76C273.834 83.0773 274.069 82.5227 274.538 82.096C275.007 81.6267 275.583 81.392 276.266 81.392H287.082V70.576C287.082 69.8933 287.295 69.3173 287.722 68.848C288.191 68.3787 288.767 68.144 289.45 68.144C290.133 68.144 290.687 68.3787 291.114 68.848C291.583 69.3173 291.818 69.8933 291.818 70.576V81.392H302.634Z" fill="white"/>
<path d="M382.712 12.108H418.079" stroke="white" stroke-width="5" stroke-miterlimit="10"/>
<path d="M390.286 3.00104H411.075C412.183 2.98122 413.277 3.24537 414.255 3.76833C415.232 4.2913 416.059 5.05567 416.657 5.98867C417.669 7.76113 418.17 9.7796 418.105 11.8198V20.6647H382.725V11.8198C382.725 11.8198 382.725 3.00104 390.286 3.00104Z" stroke="white" stroke-width="5" stroke-miterlimit="10"/>
<path d="M383.708 20.6713C383.708 20.6713 377.811 20.0161 377.654 24.93C377.654 24.93 377.156 29.5163 382.705 29.5163H419.343C419.343 29.5163 419.461 29.5163 419.664 29.5163C424.139 29.1101 425.122 22.7482 420.915 21.1692C420.006 20.84 419.045 20.6779 418.079 20.691" stroke="white" stroke-width="5" stroke-miterlimit="10"/>
<path d="M382.725 29.5097V33.2967C382.725 38.3612 381.035 43.9892 379.908 47.1669C379.375 48.6705 378.702 50.1206 377.896 51.4976L370.073 64.8895C368.496 67.453 367.179 70.1681 366.142 72.9941C364.58 77.2294 363.779 81.7079 363.777 86.2223V86.2223C363.777 105.603 378.27 122.257 397.46 124.098H397.925C399.67 124.223 401.422 124.223 403.167 124.098H403.533C422.933 122.46 437.557 105.662 437.557 86.196C437.555 81.6817 436.755 77.2032 435.192 72.9679C434.137 70.1488 432.803 67.4425 431.208 64.8895L423.405 51.5107C422.6 50.1337 421.926 48.6837 421.394 47.18C420.273 44.0023 418.576 38.3743 418.576 33.3098V29.5097" stroke="white" stroke-width="5" stroke-miterlimit="10"/>
<path d="M400.605 70.1834C394.309 70.1834 394.518 75.6411 394.518 75.6411V76.2963C394.518 78.6091 396.143 78.6091 396.143 78.6091H396.471C396.471 78.6091 398.095 78.6091 398.095 76.2963V75.5756C398.107 74.4988 397.839 73.4375 397.316 72.4962C396.575 71.1858 395.501 70.2096 392.638 70.2096C386.741 70.2096 385.968 74.6255 385.916 76.1063C385.914 76.1607 385.923 76.2149 385.943 76.2657C385.962 76.3165 385.992 76.3629 386.03 76.402C386.068 76.4411 386.113 76.4722 386.163 76.4935C386.213 76.5147 386.267 76.5256 386.322 76.5256V76.5256C386.442 76.5244 386.559 76.4813 386.651 76.4035C386.743 76.3258 386.805 76.2183 386.826 76.0997L388.425 66.8551C388.425 66.8551 395.173 37.8436 395.173 33.6439" stroke="white" stroke-width="3" stroke-miterlimit="10" stroke-linecap="round"/>
<path d="M400.48 70.1834C406.777 70.1834 406.567 75.641 406.567 75.641V76.2962C406.567 78.609 404.942 78.609 404.942 78.609H404.615C404.615 78.609 402.99 78.609 402.99 76.2962V75.5755C402.978 74.4988 403.246 73.4375 403.769 72.4962C404.51 71.1858 405.591 70.3734 408.447 70.2096C414.501 69.8558 415.117 74.6255 415.17 76.1062C415.171 76.1607 415.162 76.2149 415.142 76.2657C415.123 76.3165 415.093 76.3628 415.055 76.402C415.017 76.4411 414.972 76.4722 414.922 76.4934C414.872 76.5146 414.818 76.5256 414.763 76.5255V76.5255C414.643 76.5244 414.526 76.4812 414.434 76.4035C414.342 76.3257 414.28 76.2183 414.259 76.0997L412.66 66.855C412.66 66.855 406.488 37.8764 406.488 33.6766" stroke="white" stroke-width="3" stroke-miterlimit="10" stroke-linecap="round"/>
<path d="M448.905 86.5629H455.83" stroke="white" stroke-width="3" stroke-miterlimit="10" stroke-linecap="round"/>
<path d="M465.913 86.7398H472" stroke="white" stroke-width="3" stroke-miterlimit="10" stroke-linecap="round"/>
<path d="M442.602 110.923L448.269 114.467" stroke="white" stroke-width="3" stroke-miterlimit="10" stroke-linecap="round"/>
<path d="M456.459 118.903L462.133 122.893" stroke="white" stroke-width="3" stroke-miterlimit="10" stroke-linecap="round"/>
<path d="M424.545 128.979L428.09 134.647" stroke="white" stroke-width="3" stroke-miterlimit="10" stroke-linecap="round"/>
<path d="M433.364 143.675L436.09 148.117" stroke="white" stroke-width="3" stroke-miterlimit="10" stroke-linecap="round"/>
<path d="M400.605 135.276V142.627" stroke="white" stroke-width="3" stroke-miterlimit="10" stroke-linecap="round"/>
<path d="M400.605 152.075V158.587" stroke="white" stroke-width="3" stroke-miterlimit="10" stroke-linecap="round"/>
<path d="M376.455 129.11L372.465 135.276" stroke="white" stroke-width="3" stroke-miterlimit="10" stroke-linecap="round"/>
<path d="M368.01 143.465L364.911 148.301" stroke="white" stroke-width="3" stroke-miterlimit="10" stroke-linecap="round"/>
<path d="M357.979 111.198L352.731 114.703" stroke="white" stroke-width="3" stroke-miterlimit="10" stroke-linecap="round"/>
<path d="M343.696 119.532L339.286 122.677" stroke="white" stroke-width="3" stroke-miterlimit="10" stroke-linecap="round"/>
<path d="M352.311 86.5629H344.331" stroke="white" stroke-width="3" stroke-miterlimit="10" stroke-linecap="round"/>
<path d="M335.932 86.5629H329" stroke="white" stroke-width="3" stroke-miterlimit="10" stroke-linecap="round"/>
</svg>
